<svg xmlns="http://www.w3.org/2000/svg" width="40" height="40" fill="none" viewBox="0 0 40 40"><path fill="#697DDB" fill-rule="evenodd" d="M9.003 26.118H4.834a1.25 1.25 0 0 0 0 2.5h4.169a1.25 1.25 0 0 0 0-2.5ZM9.623 10.185H4.834a1.25 1.25 0 0 0 0 2.5h4.789a1.25 1.25 0 0 0 0-2.5ZM4.834 20.619h2.38a1.25 1.25 0 0 0 0-2.5h-2.38a1.25 1.25 0 0 0 0 2.5ZM36.03 30.217l-2.602-2.595a1.311 1.311 0 0 0-1.852 1.858l2.602 2.594a1.311 1.311 0 1 0 1.852-1.857Z" clip-rule="evenodd"/><path fill="#697DDB" fill-rule="evenodd" d="M23.1 7.542c-6.097 0-11.037 4.944-11.037 11.042 0 6.097 4.94 11.04 11.037 11.04s11.038-4.943 11.038-11.04c0-6.098-4.941-11.042-11.038-11.042Z" clip-rule="evenodd" opacity=".4"/></svg>