<svg xmlns="http://www.w3.org/2000/svg" width="23" height="22" fill="none" viewBox="0 0 23 22"><path fill="#163A34" fill-rule="evenodd" d="M11.664 8.198a3.19 3.19 0 0 0-3.187 3.184 3.188 3.188 0 0 0 6.374 0 3.188 3.188 0 0 0-3.187-3.184Z" clip-rule="evenodd"/><path fill="#163A34" fill-rule="evenodd" d="M17.476 6.842c-.66 0-1.198-.535-1.198-1.191a1.198 1.198 0 0 1 2.396 0c0 .656-.538 1.191-1.198 1.191Zm-5.812 9.461a4.928 4.928 0 0 1-4.924-4.92 4.928 4.928 0 0 1 4.924-4.922 4.927 4.927 0 0 1 4.923 4.921 4.927 4.927 0 0 1-4.923 4.921ZM16.727 0H6.96C3.303 0 .844 2.573.844 6.403v9.194C.844 19.426 3.303 22 6.96 22h9.766c3.659 0 6.118-2.574 6.118-6.403V6.403c0-3.83-2.458-6.403-6.117-6.403Z" clip-rule="evenodd"/></svg>