<svg xmlns="http://www.w3.org/2000/svg" width="24" height="34" fill="none" viewBox="0 0 24 34"><path fill="#FE9F6B" d="M15.344 5.492c.058.437-.36.766-.798.712-4.09-.504-9.506 2.403-11.194 6.17-.183.41-.692.6-1.037.313-.675-.562-1.256-1.251-1.612-2.05C.336 9.819.22 8.809.847 7.96c.443-.6 1.16-.979 2.08-1.173-.612-2.475.083-4.56 1.759-5.446 1.677-.886 3.795-.285 5.498 1.614.689-.654 1.408-1.036 2.152-1.066 1.055-.044 1.817.621 2.278 1.385.382.631.622 1.405.73 2.218Z" opacity=".4"/><path fill="#FE9F6B" d="M8.125 22.995a.822.822 0 0 1-1.05-.24c-1.71-2.354-2.92-4.538-3.167-5.82-.376-1.978-.473-5.266 4.865-8.091 5.34-2.825 8.004-.894 9.425.531.373.375.78.963 1.197 1.711.22.396.06.89-.34 1.102l-3.972 2.101a1.25 1.25 0 0 0 1.17 2.21l3.714-1.965a.818.818 0 0 1 1.154.433 45.413 45.413 0 0 1 1.671 5.68.823.823 0 0 1-.421.906l-2.996 1.585a1.25 1.25 0 1 0 1.17 2.21l1.766-.935c.513-.272 1.14.052 1.192.63.328 3.627-.156 6.686-2.129 7.62-2.824 1.659-7.719-2.146-11.617-6.563a.82.82 0 0 1 .24-1.266l2.712-1.435a1.25 1.25 0 0 0-1.169-2.21l-3.415 1.806Z"/></svg>