<svg xmlns="http://www.w3.org/2000/svg" width="32" height="32" fill="none" viewBox="0 0 32 32"><path fill="#163A34" d="m10.937 17.587-4.933.436A2.014 2.014 0 0 1 4 16c0-1.117.897-2.023 2.004-2.023l4.933.436c.868 0 1.572.71 1.572 1.587a1.58 1.58 0 0 1-1.572 1.588Z" opacity=".4"/><path fill="#163A34" d="M27.5 17.507c-.078.078-.366.407-.636.68-1.578 1.71-5.699 4.509-7.855 5.365-.327.137-1.154.427-1.598.448-.423 0-.828-.098-1.213-.292a2.513 2.513 0 0 1-1.078-1.206c-.135-.35-.348-1.4-.348-1.419-.21-1.147-.325-3.012-.325-5.074 0-1.962.114-3.751.288-4.917.018-.021.23-1.324.462-1.77A2.42 2.42 0 0 1 17.334 8h.077c.577.02 1.79.526 1.79.543 2.041.857 6.064 3.52 7.682 5.29 0 0 .457.454.654.738.309.408.463.914.463 1.419 0 .564-.173 1.088-.5 1.517Z"/></svg>