<svg xmlns="http://www.w3.org/2000/svg" width="21" height="20" fill="none" viewBox="0 0 21 20"><path fill="#163A34" fill-rule="evenodd" d="M13.002 13.088a.618.618 0 0 1-.859.216l-2.275-1.366a.616.616 0 0 1-.308-.534V8.463a.624.624 0 1 1 1.25 0v2.583l1.975 1.192c.3.175.4.558.217.85Zm-2.675-8.892a6.658 6.658 0 0 0-6.65 6.65 6.658 6.658 0 0 0 6.65 6.65 6.658 6.658 0 0 0 6.65-6.65 6.658 6.658 0 0 0-6.65-6.65ZM5.864 3.669a.624.624 0 1 0-.657-1.064A9.665 9.665 0 0 0 2.316 5.36a.625.625 0 0 0 1.032.705 8.422 8.422 0 0 1 2.516-2.396ZM18.349 5.36a9.613 9.613 0 0 0-2.901-2.764.626.626 0 0 0-.654 1.066 8.351 8.351 0 0 1 2.522 2.402.623.623 0 0 0 .868.164.625.625 0 0 0 .165-.868Z" clip-rule="evenodd"/></svg>