<svg xmlns="http://www.w3.org/2000/svg" width="339" height="339" fill="none" viewBox="0 0 339 339"><path fill="#D0DCD9" d="M283.393 13.59s-69.035 69.035-78.007 78.063C197.145 99.839.279 297.225.279 297.225l-.017.016S62.17 317.726 215.72 164.153c-25.758-45.751 15.332-53.19 30.536-59.981 24.873-11.114 63.832-63.965 63.832-63.965l-.105-.072c.116-.06.21-.1.31-.21 7.417-7.34 7.417-19.305.011-26.6-7.311-7.345-19.311-7.356-26.611 0-.094.038-.205.149-.199.243l-.1.022Z"/><path fill="#49AC9B" d="M101.598 160.566c26.777-11.216 28.507 32.541 35.678 45.197 3.779 6.664 9.208 13.539 16.706 16.244 26.102 9.425 66.796-42.146 76.59.955 4.901 21.582-1.184 43.879 18.78 59.935 13.652 10.983 30.6 10.807 44.146.605 5.446-4.104-1.435-12.18-6.836-8.059-21.064 16.086-38.987-11.267-43.648-27.683-2.333-8.213-1.061-16.369-1.866-24.648-.736-7.589-1.606-13.969-6.499-20.125-9.719-12.228-26.991-12.97-40.442-7.328-3.282 1.373-6.144 3.672-9.318 5.208-8.505 4.112-25.485 9.818-34.935 5.047-8.519-4.296-11.058-35.22-17.096-43.97-8.26-11.969-20.908-17.155-34.375-11.475-6.222 2.62-3.172 12.728 3.115 10.097Z"/></svg>