<svg xmlns="http://www.w3.org/2000/svg" width="315" height="391" fill="none" viewBox="0 0 315 391"><path fill="#D0DCD9" d="m257.302 141.007 47.226-94.376-9.332-6.115-54.436 89.047a5.565 5.565 0 0 1-7.789 1.741l-1.776-1.169a5.558 5.558 0 0 1-1.602-7.689l57.151-87.461-8.206-5.328-57.544 88.062a5.56 5.56 0 1 1-9.31-6.083l57.552-88.075-9.041-5.89-57.572 88.053a5.554 5.554 0 0 1-7.693 1.607l-1.533-1.002a5.557 5.557 0 0 1-1.513-7.837l60.458-85.995-8.516-5.565-64.756 76.485s-2.3 2.968-3.078 4.159c-8.39 12.839-8.775 27.889-5.515 41.759 2.706 11.501 6.389 20.601 2.197 32.177-8.462 18.019-29.266 37.8-41.424 52.966-42.922 53.524-84.163 121.353-84.163 121.353l.036.024c-.08.094-.178.193-.253.307-5.78 8.846-2.166 21.532 6.676 27.345l.139.09c8.87 5.796 22.14 4.126 27.928-4.733.075-.114.138-.236.18-.354l.036.024s56.087-86.227 77.344-125.81c8.952-16.669 18.34-42.751 30.865-57.978 9.08-7.197 21.015-9.413 32.064-11.942 13.299-3.042 24.997-7.85 33.443-19.186.549-.723 1.757-2.611 1.757-2.611Z"/><path fill="#FE9F6B" d="M16.766 166.531c37.128-31.793 95.182-23.249 111.544 26.935 6.796 20.869 2.83 44.092 11.857 64.461 11.109 25.062 36.526 39.945 61.557 23.831 8.822-5.691 1.038-20.073-7.894-14.382-45.414 28.964-43.228-58.346-49.911-78.923-5.82-17.922-17.095-33.059-32.526-43.772-33.453-23.213-74.464-17.051-104.296 8.608-7.963 6.845 1.64 20.12 9.669 13.242Z"/></svg>