<svg xmlns="http://www.w3.org/2000/svg" width="1440" height="616" fill="none" viewBox="0 0 1440 616"><g clip-path="url(#a)"><path fill="#697DDB" d="M-132.333 886.836c-33.909-110.402-67.008-229.564-38.542-345.161 35.02-142.326 149.005-219.257 293.325-212.932 212.829 9.351 383.197 173.418 582.749 231.651 414.671 121.04 698.261-201.37 783.701-576.929 5.26-23.105-30.21-33.776-35.51-10.49-53.05 233.245-174.62 474.699-416.85 555.019-256.308 84.97-473.205-77.177-694.696-177.9-136.599-62.132-316.78-96.086-443.616 7.114-163.319 132.877-120.221 364.579-66.462 538.732 7.027 22.711 42.909 13.698 35.901-9.104Z" opacity=".4"/></g><defs><clipPath id="a"><path fill="#fff" d="M0 0h1440v616H0z"/></clipPath></defs></svg>