<svg xmlns="http://www.w3.org/2000/svg" width="26" height="22" fill="none" viewBox="0 0 26 22"><g clip-path="url(#a)"><path fill="#163A34" d="M6.22 1.48c2.865 2.151 5.946 6.512 7.077 8.852 1.132-2.34 4.213-6.7 7.077-8.851 2.067-1.552 5.416-2.753 5.416 1.068 0 .763-.437 6.41-.694 7.327-.892 3.187-4.142 4-7.032 3.508 5.053.86 6.338 3.709 3.562 6.557-5.272 5.41-7.578-1.357-8.17-3.091-.107-.318-.158-.467-.159-.34 0-.127-.051.022-.16.34-.59 1.734-2.896 8.502-8.169 3.091-2.776-2.848-1.49-5.697 3.563-6.557-2.891.492-6.141-.321-7.033-3.508-.257-.917-.694-6.564-.694-7.327 0-3.82 3.35-2.62 5.416-1.068Z"/></g><defs><clipPath id="a"><path fill="#fff" d="M.844 0H25.75v22H.844z"/></clipPath></defs></svg>