<svg xmlns="http://www.w3.org/2000/svg" width="20" height="22" fill="none" viewBox="0 0 20 22"><path fill="#163A34" d="M20 9.023h-.043c-1.977 0-3.781-.601-5.242-1.675v7.691c0 3.867-3.137 6.961-7.004 6.961A6.932 6.932 0 0 1 .75 15.04c0-3.868 3.094-7.005 6.96-7.005.345 0 .645.043.99.086v3.867a2.664 2.664 0 0 0-.99-.172c-1.76 0-3.222 1.461-3.222 3.223 0 1.762 1.461 3.223 3.223 3.223 1.762 0 3.223-1.461 3.223-3.223V0h3.78v.086c0 .3 0 .602.087.902a5.226 5.226 0 0 0 2.32 3.438c.817.558 1.805.86 2.836.86H20v3.737Z"/></svg>