<svg xmlns="http://www.w3.org/2000/svg" width="20" height="20" fill="none" viewBox="0 0 20 20"><path fill="#163A34" d="M7.222 2.097a.625.625 0 1 0-.884.884.37.37 0 0 1 0 .524 1.621 1.621 0 0 0 0 2.293.625.625 0 1 0 .883-.884.37.37 0 0 1 0-.525 1.62 1.62 0 0 0 0-2.292ZM15.461 4.906a.625.625 0 1 0-.883-.884 1.62 1.62 0 0 0 0 2.293.625.625 0 0 0 .883-.885.37.37 0 0 1 0-.524ZM3.503 5.43a.625.625 0 0 0-.884.884.37.37 0 0 1 0 .524.625.625 0 0 0 .884.885 1.62 1.62 0 0 0 0-2.293Z"/><path fill="#163A34" fill-rule="evenodd" d="M10 5.218c-.955 0-1.727.774-1.727 1.728v.568c-3.156.669-5.525 3.129-5.347 6.095.013.22.195.392.416.392h13.316c.22 0 .403-.172.416-.392.178-2.966-2.192-5.426-5.347-6.095v-.568c0-.954-.774-1.728-1.727-1.728Zm.477 2.13v-.402a.478.478 0 1 0-.954 0v.401a8.45 8.45 0 0 1 .954 0Z" clip-rule="evenodd"/><path fill="#163A34" d="M2.332 15.07a.915.915 0 0 1 .585-.188h14.166c.21 0 .417.053.585.188a.84.84 0 0 1 .29.488c.07.32-.01.684-.106.972a1.974 1.974 0 0 1-1.872 1.349H4.02a1.973 1.973 0 0 1-1.872-1.349c-.096-.288-.175-.651-.106-.972a.84.84 0 0 1 .29-.488Z"/></svg>